<svg id="svg" version="1.1" xmlns="http://www.w3.org/2000/svg" xmlns:xlink="http://www.w3.org/1999/xlink" width="400" height="400" viewBox="0, 0, 400,400"><g id="svgg"><path id="path0" d="M63.800 129.220 C 40.352 130.549,23.574 140.292,23.607 152.560 C 23.623 158.579,25.825 159.576,30.237 155.561 C 35.766 150.531,40.191 147.681,44.400 146.438 C 45.390 146.146,46.650 145.762,47.200 145.584 C 48.337 145.217,51.526 144.758,53.591 144.663 C 55.290 144.586,55.544 145.306,54.585 147.484 C 54.219 148.318,53.757 149.405,53.559 149.900 C 53.362 150.395,53.037 151.205,52.837 151.700 C 51.524 154.957,48.373 164.294,46.335 170.969 C 45.375 174.112,45.353 174.142,43.584 174.726 C 42.603 175.049,41.440 175.450,41.000 175.616 C 40.560 175.783,39.570 176.136,38.800 176.402 C 32.354 178.624,26.800 183.463,26.800 186.857 L 26.800 188.124 32.500 187.805 C 42.190 187.262,41.409 187.174,41.347 188.800 C 41.318 189.570,41.081 190.920,40.821 191.800 C 40.561 192.680,40.162 194.210,39.935 195.200 C 39.707 196.190,39.350 197.720,39.140 198.600 C 38.406 201.685,37.708 205.475,36.745 211.600 C 36.080 215.839,35.856 228.680,36.404 231.200 C 37.188 234.804,37.800 235.201,42.570 235.195 C 51.952 235.184,55.693 232.706,56.150 226.200 C 56.700 218.354,57.341 212.866,58.369 207.200 C 58.799 204.826,58.944 204.147,60.778 195.900 C 60.986 194.965,61.338 193.480,61.560 192.600 C 62.313 189.614,62.763 187.803,63.033 186.676 C 63.592 184.342,63.839 184.313,77.179 184.966 C 92.639 185.724,92.192 185.877,93.993 179.200 C 94.260 178.210,94.640 177.087,94.839 176.705 C 95.038 176.323,95.200 175.137,95.200 174.070 C 95.200 171.191,95.246 171.200,80.769 171.200 C 69.622 171.200,68.349 171.134,68.122 170.540 C 67.889 169.934,68.187 168.659,70.444 160.600 C 72.622 152.823,73.148 150.645,73.921 146.200 L 74.200 144.600 92.584 144.496 C 104.036 144.431,111.117 144.243,111.364 143.996 C 111.582 143.778,112.049 143.600,112.402 143.600 C 113.150 143.600,115.238 141.446,115.892 140.000 C 121.238 128.174,123.733 129.294,91.600 129.092 C 78.950 129.013,66.440 129.070,63.800 129.220 M112.724 161.999 C 106.595 163.070,103.685 171.473,107.900 175.929 C 108.175 176.219,108.400 176.587,108.400 176.745 C 108.400 176.904,108.985 177.667,109.700 178.442 C 112.774 181.774,112.615 181.267,111.399 183.877 C 106.623 194.125,105.478 200.555,105.431 217.400 C 105.400 228.688,105.572 230.435,106.992 233.200 C 109.270 237.636,120.389 235.247,122.991 229.762 C 123.544 228.597,123.573 227.216,123.237 218.319 C 122.764 205.850,122.889 204.556,125.611 193.600 C 125.857 192.610,126.154 191.215,126.273 190.500 C 126.391 189.785,126.603 189.184,126.744 189.164 C 126.885 189.145,129.160 189.078,131.800 189.016 C 134.440 188.953,137.065 188.715,137.633 188.486 C 139.505 187.733,139.823 188.460,138.672 190.855 C 132.875 202.914,131.714 219.198,136.045 227.688 C 140.607 236.630,154.113 235.593,164.113 225.532 C 167.819 221.803,167.588 221.844,169.414 224.595 C 175.245 233.379,190.096 236.538,205.800 232.335 C 211.652 230.769,219.060 227.047,221.600 224.396 C 223.680 222.226,225.200 221.731,225.200 223.224 C 225.200 223.651,225.380 224.000,225.600 224.000 C 225.820 224.000,226.000 224.274,226.000 224.609 C 226.000 228.188,236.426 232.800,244.517 232.800 C 246.367 232.800,248.402 232.641,249.040 232.447 C 249.678 232.252,251.010 231.856,252.000 231.565 C 255.162 230.637,257.909 228.908,260.974 225.915 C 263.295 223.649,263.947 223.839,263.258 226.578 C 263.006 227.580,262.609 229.255,262.375 230.300 C 261.073 236.114,261.168 236.042,252.741 237.633 C 250.284 238.098,247.506 238.678,245.200 239.211 C 244.210 239.439,242.631 239.734,241.691 239.866 C 240.751 239.998,239.885 240.262,239.767 240.453 C 239.649 240.644,239.122 240.800,238.595 240.800 C 238.069 240.800,237.224 240.961,236.719 241.158 C 236.213 241.355,234.990 241.755,234.000 242.046 C 229.404 243.397,225.080 246.259,223.628 248.912 C 222.746 250.522,222.417 256.822,223.137 258.305 C 223.322 258.687,223.906 259.891,224.435 260.980 C 227.606 267.513,235.608 271.600,245.227 271.600 C 259.181 271.600,266.224 265.836,271.620 250.000 C 273.623 244.123,273.641 244.097,277.114 242.368 C 284.646 238.617,296.050 229.017,300.000 223.103 C 301.259 221.218,301.786 221.217,302.654 223.100 C 308.767 236.363,330.126 238.551,342.000 227.131 C 344.220 224.997,346.000 222.920,346.000 222.465 C 346.000 221.743,347.571 220.654,347.760 221.246 C 347.857 221.550,348.323 223.047,348.796 224.572 C 350.867 231.242,353.283 233.607,358.000 233.584 C 372.766 233.512,391.596 215.790,389.261 204.163 C 388.321 199.483,387.912 199.598,380.842 206.519 C 366.939 220.128,364.308 221.035,362.950 212.681 C 362.270 208.501,362.274 203.079,362.964 195.000 L 363.510 188.600 366.355 183.166 C 370.225 175.774,370.115 174.132,365.433 169.450 C 360.136 164.153,353.522 163.635,351.936 168.392 C 351.800 168.799,351.222 168.705,349.380 167.979 C 341.553 164.892,327.201 167.613,319.269 173.688 C 314.437 177.390,307.200 185.455,307.200 187.139 C 307.200 187.356,307.065 187.593,306.900 187.667 C 306.613 187.794,305.027 190.922,304.399 192.600 C 304.234 193.040,303.894 193.911,303.642 194.535 C 302.977 196.188,301.707 201.108,301.395 203.247 C 300.926 206.455,291.083 217.751,283.298 224.014 C 279.313 227.219,278.969 227.031,280.340 222.400 C 280.568 221.630,280.931 220.370,281.145 219.600 C 281.360 218.830,282.436 215.050,283.536 211.200 C 285.536 204.203,288.335 193.350,289.209 189.200 C 289.464 187.990,289.820 186.370,290.000 185.600 C 291.636 178.587,291.578 176.639,289.609 172.571 C 284.274 161.549,277.335 160.974,274.027 171.280 C 273.299 173.546,272.571 175.760,272.408 176.200 C 271.945 177.447,271.353 179.436,270.027 184.200 C 269.353 186.620,268.633 189.140,268.427 189.800 C 268.221 190.460,267.316 194.025,266.416 197.722 C 264.621 205.093,263.264 208.914,261.532 211.472 C 260.909 212.392,260.400 213.316,260.400 213.526 C 260.400 214.837,256.348 217.479,253.511 218.017 C 244.298 219.766,242.825 215.129,247.184 198.100 C 247.395 197.275,247.859 195.430,248.216 194.000 C 248.965 190.994,249.265 189.898,250.241 186.600 C 251.171 183.459,251.287 173.500,250.425 170.800 C 248.807 165.729,244.683 164.431,237.192 166.633 C 232.362 168.052,232.697 167.082,230.586 185.800 C 230.264 188.660,229.820 192.001,229.600 193.224 C 229.380 194.447,229.200 196.056,229.200 196.800 C 229.200 203.004,223.124 209.979,213.200 215.168 C 202.832 220.589,189.862 219.329,186.756 212.600 C 185.875 210.691,185.703 205.532,186.500 204.903 C 187.010 204.499,196.341 200.811,199.600 199.724 C 201.393 199.126,209.619 195.246,210.000 194.819 C 210.110 194.696,211.010 193.983,212.000 193.236 C 223.424 184.610,220.065 168.591,206.448 166.759 C 188.090 164.288,170.909 179.803,166.630 202.716 C 165.834 206.980,165.986 206.741,160.984 211.559 C 149.833 222.300,147.478 220.500,151.879 204.600 C 154.443 195.334,154.831 193.935,155.207 192.600 C 157.904 183.018,157.889 183.173,156.412 179.612 C 152.789 170.876,151.387 170.104,144.851 173.240 C 138.438 176.317,136.909 176.800,133.582 176.800 C 130.574 176.800,128.934 176.115,128.378 174.626 C 128.125 173.952,127.780 173.040,127.610 172.600 C 124.531 164.628,119.241 160.860,112.724 161.999 M349.200 176.574 C 349.200 177.109,348.954 178.774,348.653 180.274 C 347.837 184.336,347.210 190.209,346.805 197.600 C 346.453 204.010,346.142 205.583,344.693 208.300 C 344.312 209.015,343.702 210.170,343.338 210.866 C 339.642 217.931,328.751 222.290,324.132 218.552 C 318.655 214.119,319.735 198.393,326.079 190.212 C 330.563 184.430,340.374 177.200,343.737 177.200 C 344.076 177.200,344.464 177.020,344.600 176.800 C 344.736 176.580,345.332 176.397,345.924 176.394 C 346.516 176.391,347.270 176.213,347.600 176.000 C 348.614 175.344,349.200 175.555,349.200 176.574 M199.761 178.785 C 204.553 180.607,201.577 187.498,194.231 191.590 C 193.368 192.070,191.602 193.184,190.305 194.064 C 187.921 195.684,186.740 195.848,187.009 194.524 C 188.657 186.404,190.276 182.421,192.782 180.317 C 195.284 178.216,197.174 177.801,199.761 178.785 M256.306 250.351 C 256.236 250.488,255.826 251.365,255.395 252.300 C 254.964 253.235,254.474 254.000,254.306 254.000 C 254.138 254.000,254.000 254.261,254.000 254.579 C 254.000 255.344,249.321 260.085,247.838 260.822 C 246.446 261.514,240.981 261.541,240.299 260.859 C 240.046 260.606,239.538 260.400,239.169 260.400 C 238.205 260.400,235.299 257.533,234.981 256.267 C 234.215 253.213,235.848 252.545,248.400 250.785 C 250.050 250.553,252.210 250.229,253.200 250.065 C 255.030 249.761,256.536 249.899,256.306 250.351 " stroke="none" fill="#553d55" fill-rule="evenodd"></path><path id="path1" d="M31.548 0.185 C 31.444 0.290,30.769 0.420,30.049 0.475 C 29.328 0.530,28.652 0.715,28.546 0.887 C 28.440 1.059,28.001 1.200,27.571 1.200 C 27.141 1.200,26.432 1.380,25.995 1.600 C 25.558 1.820,24.842 2.180,24.405 2.400 C 23.968 2.620,23.338 2.800,23.005 2.800 C 22.672 2.800,22.400 2.980,22.400 3.200 C 22.400 3.420,22.040 3.600,21.600 3.600 C 21.160 3.600,20.800 3.780,20.800 4.000 C 20.800 4.220,20.480 4.400,20.088 4.400 C 19.697 4.400,19.117 4.760,18.800 5.200 C 18.483 5.640,17.969 6.000,17.659 6.000 C 17.348 6.000,16.803 6.333,16.447 6.741 C 16.091 7.148,15.242 7.769,14.559 8.120 C 13.877 8.472,13.008 9.234,12.627 9.814 C 12.247 10.395,11.837 10.770,11.716 10.649 C 11.423 10.356,8.941 13.089,8.127 14.600 C 7.772 15.260,7.148 16.091,6.741 16.447 C 6.333 16.803,6.000 17.348,6.000 17.659 C 6.000 17.969,5.640 18.483,5.200 18.800 C 4.760 19.117,4.400 19.697,4.400 20.088 C 4.400 20.480,4.220 20.800,4.000 20.800 C 3.780 20.800,3.600 21.160,3.600 21.600 C 3.600 22.040,3.420 22.400,3.200 22.400 C 2.980 22.400,2.800 22.672,2.800 23.005 C 2.800 23.338,2.641 23.923,2.447 24.305 C 1.879 25.421,1.330 26.872,0.746 28.800 C 0.213 30.556,-0.139 366.193,0.387 369.930 C 0.490 370.662,0.715 371.348,0.887 371.454 C 1.059 371.560,1.200 371.999,1.200 372.429 C 1.200 372.859,1.380 373.568,1.600 374.005 C 1.820 374.442,2.180 375.158,2.400 375.595 C 2.620 376.032,2.800 376.662,2.800 376.995 C 2.800 377.328,2.980 377.600,3.200 377.600 C 3.420 377.600,3.600 377.960,3.600 378.400 C 3.600 378.840,3.780 379.200,4.000 379.200 C 4.220 379.200,4.400 379.494,4.400 379.853 C 4.400 380.212,4.772 380.829,5.226 381.223 C 5.681 381.617,6.047 382.088,6.041 382.270 C 6.035 382.451,6.383 383.006,6.815 383.503 C 7.247 384.000,7.600 384.557,7.600 384.742 C 7.600 384.926,8.275 385.774,9.100 386.625 C 9.925 387.476,10.555 388.313,10.500 388.486 C 10.445 388.659,10.681 388.800,11.024 388.800 C 11.367 388.800,11.536 388.980,11.400 389.200 C 11.264 389.420,11.321 389.600,11.526 389.600 C 11.731 389.600,12.587 390.230,13.428 391.000 C 14.269 391.770,15.151 392.400,15.390 392.400 C 15.628 392.400,16.083 392.760,16.400 393.200 C 16.717 393.640,17.257 394.000,17.600 394.000 C 17.943 394.000,18.483 394.360,18.800 394.800 C 19.117 395.240,19.697 395.600,20.088 395.600 C 20.480 395.600,20.800 395.780,20.800 396.000 C 20.800 396.220,21.160 396.400,21.600 396.400 C 22.040 396.400,22.400 396.580,22.400 396.800 C 22.400 397.020,22.672 397.200,23.005 397.200 C 23.338 397.200,23.923 397.359,24.305 397.553 C 25.853 398.340,27.051 398.772,28.000 398.883 C 28.550 398.947,29.128 399.180,29.285 399.400 C 29.681 399.955,370.319 399.955,370.715 399.400 C 370.872 399.180,371.450 398.947,372.000 398.883 C 372.949 398.772,374.147 398.340,375.695 397.553 C 376.077 397.359,376.662 397.200,376.995 397.200 C 377.328 397.200,377.601 397.065,377.603 396.900 C 377.607 396.541,379.544 395.600,380.280 395.600 C 380.566 395.600,380.805 395.465,380.811 395.300 C 380.817 395.135,381.537 394.559,382.411 394.020 C 383.285 393.480,384.000 392.895,384.000 392.720 C 384.000 392.544,384.188 392.400,384.417 392.400 C 384.858 392.400,385.457 391.968,387.056 390.500 C 387.595 390.005,388.131 389.600,388.247 389.600 C 388.603 389.600,389.679 388.400,389.329 388.394 C 389.148 388.390,389.585 387.871,390.300 387.241 C 391.015 386.610,391.600 385.893,391.600 385.647 C 391.600 385.401,391.780 385.200,392.000 385.200 C 392.220 385.200,392.400 384.930,392.400 384.600 C 392.400 384.270,392.544 384.000,392.720 384.000 C 392.895 384.000,393.480 383.285,394.020 382.411 C 394.559 381.537,395.135 380.817,395.300 380.811 C 395.465 380.805,395.600 380.566,395.600 380.280 C 395.600 379.544,396.541 377.607,396.900 377.603 C 397.065 377.601,397.200 377.328,397.200 376.995 C 397.200 376.662,397.380 376.032,397.600 375.595 C 397.820 375.158,398.180 374.442,398.400 374.005 C 398.620 373.568,398.800 372.884,398.800 372.485 C 398.800 372.086,399.025 371.535,399.300 371.260 C 399.945 370.615,400.045 29.746,399.400 29.285 C 399.180 29.128,398.947 28.550,398.883 28.000 C 398.772 27.051,398.340 25.853,397.553 24.305 C 397.359 23.923,397.200 23.338,397.200 23.005 C 397.200 22.672,397.020 22.400,396.800 22.400 C 396.580 22.400,396.400 22.040,396.400 21.600 C 396.400 21.160,396.220 20.800,396.000 20.800 C 395.780 20.800,395.600 20.480,395.600 20.088 C 395.600 19.697,395.240 19.117,394.800 18.800 C 394.360 18.483,394.000 17.943,394.000 17.600 C 394.000 17.257,393.640 16.717,393.200 16.400 C 392.760 16.083,392.400 15.628,392.400 15.390 C 392.400 15.151,391.770 14.269,391.000 13.428 C 390.230 12.587,389.600 11.731,389.600 11.526 C 389.600 11.321,389.420 11.264,389.200 11.400 C 388.980 11.536,388.800 11.367,388.800 11.024 C 388.800 10.681,388.659 10.445,388.486 10.500 C 388.313 10.555,387.476 9.925,386.625 9.100 C 385.774 8.275,384.926 7.600,384.742 7.600 C 384.557 7.600,383.971 7.222,383.439 6.759 C 382.907 6.296,382.352 5.948,382.205 5.985 C 382.059 6.022,381.617 5.681,381.223 5.226 C 380.829 4.772,380.212 4.400,379.853 4.400 C 379.494 4.400,379.200 4.220,379.200 4.000 C 379.200 3.780,378.840 3.600,378.400 3.600 C 377.960 3.600,377.600 3.420,377.600 3.200 C 377.600 2.980,377.328 2.800,376.995 2.800 C 376.662 2.800,376.032 2.620,375.595 2.400 C 375.158 2.180,374.442 1.820,374.005 1.600 C 373.568 1.380,372.878 1.200,372.472 1.200 C 372.066 1.200,371.608 1.075,371.455 0.922 C 371.302 0.769,370.867 0.549,370.488 0.433 C 369.630 0.171,31.809 -0.076,31.548 0.185 M110.391 128.382 C 120.565 128.837,121.463 129.569,118.856 135.290 C 118.227 136.670,117.469 138.480,117.172 139.311 C 114.995 145.394,113.472 145.700,88.558 145.060 C 73.593 144.676,75.014 144.381,74.361 148.000 C 73.803 151.095,72.862 155.172,72.053 158.000 C 71.832 158.770,71.388 160.390,71.065 161.600 C 70.741 162.810,70.100 165.059,69.639 166.599 C 69.177 168.138,68.800 169.506,68.800 169.639 C 68.800 169.896,75.049 170.242,87.317 170.664 L 94.833 170.923 95.659 172.083 C 96.250 172.913,96.408 173.550,96.214 174.321 C 96.065 174.915,95.846 175.987,95.727 176.704 C 95.609 177.421,95.351 178.106,95.156 178.227 C 94.960 178.348,94.800 178.889,94.800 179.429 C 94.800 179.969,94.641 180.723,94.447 181.105 C 94.252 181.487,93.847 182.340,93.547 183.000 C 92.247 185.853,90.537 186.556,85.633 186.252 C 83.525 186.122,77.928 185.897,73.196 185.754 L 64.592 185.493 64.126 186.447 C 63.658 187.406,63.326 188.693,62.927 191.104 C 62.809 191.821,62.551 192.506,62.356 192.627 C 62.160 192.748,62.000 193.456,62.000 194.200 C 62.000 194.944,61.839 195.652,61.642 195.774 C 61.445 195.895,61.171 196.761,61.033 197.697 C 60.894 198.634,60.677 200.120,60.549 201.000 C 60.422 201.880,60.156 202.771,59.959 202.980 C 59.762 203.189,59.600 204.188,59.600 205.200 C 59.600 206.212,59.437 207.211,59.237 207.420 C 59.037 207.629,58.772 208.700,58.648 209.800 C 58.524 210.900,58.228 213.150,57.990 214.800 C 57.752 216.450,57.413 220.230,57.237 223.200 C 56.665 232.843,54.621 235.024,45.168 236.075 C 35.677 237.130,33.887 233.638,35.390 217.000 C 35.937 210.938,36.179 209.200,37.201 204.000 C 37.439 202.790,37.727 201.170,37.841 200.400 C 37.956 199.630,38.206 198.640,38.398 198.200 C 38.589 197.760,38.848 196.815,38.973 196.100 C 39.098 195.385,39.302 194.215,39.427 193.500 C 39.552 192.785,39.810 191.840,40.000 191.400 C 40.190 190.960,40.416 190.017,40.503 189.305 L 40.660 188.009 38.630 188.227 C 27.372 189.433,24.126 188.852,25.937 185.952 C 26.192 185.545,26.400 184.938,26.400 184.605 C 26.400 184.272,26.580 184.000,26.800 184.000 C 27.020 184.000,27.200 183.815,27.200 183.589 C 27.200 182.381,33.507 177.200,34.978 177.200 C 35.320 177.200,35.600 177.020,35.600 176.800 C 35.600 176.580,35.962 176.400,36.405 176.400 C 36.848 176.400,37.613 176.192,38.105 175.938 C 40.026 174.944,40.416 174.800,41.171 174.800 C 41.601 174.800,42.064 174.620,42.200 174.400 C 42.336 174.180,42.809 174.000,43.252 174.000 C 44.284 174.000,45.200 173.084,45.200 172.052 C 45.200 171.609,45.380 171.136,45.600 171.000 C 45.820 170.864,46.000 170.395,46.000 169.958 C 46.000 168.753,50.141 155.937,51.674 152.400 C 51.912 151.850,52.239 151.040,52.400 150.600 C 52.837 149.406,53.647 147.492,54.047 146.705 C 54.241 146.323,54.400 145.918,54.400 145.805 C 54.400 145.415,48.846 145.601,48.600 146.000 C 48.464 146.220,48.001 146.400,47.571 146.400 C 47.141 146.400,46.477 146.562,46.095 146.761 C 45.713 146.960,44.590 147.357,43.600 147.644 C 42.610 147.931,41.710 148.273,41.600 148.404 C 41.490 148.535,40.737 148.950,39.926 149.327 C 38.089 150.182,32.911 154.071,30.021 156.767 C 23.934 162.445,20.121 154.700,24.538 145.631 C 28.324 137.858,39.165 132.102,55.200 129.350 C 57.070 129.029,59.410 128.618,60.400 128.438 C 62.847 127.992,100.716 127.950,110.391 128.382 M118.305 161.156 C 118.687 161.351,119.694 161.846,120.541 162.256 C 122.725 163.310,125.577 166.580,127.144 169.825 C 127.881 171.351,128.645 172.913,128.842 173.295 C 129.039 173.677,129.200 174.352,129.200 174.795 C 129.200 175.674,137.124 176.051,138.705 175.247 C 139.087 175.052,139.850 174.714,140.400 174.495 C 140.950 174.275,142.930 173.353,144.800 172.445 C 149.413 170.204,151.182 170.188,153.213 172.365 C 154.541 173.789,155.211 174.963,157.457 179.800 C 158.268 181.547,158.370 186.190,157.614 186.946 C 157.386 187.174,157.200 187.716,157.200 188.152 C 157.200 188.587,157.016 189.496,156.792 190.172 C 156.271 191.738,152.252 206.385,151.653 208.900 C 151.404 209.945,151.006 211.576,150.769 212.525 C 149.064 219.349,152.264 218.736,160.706 210.619 L 165.012 206.479 165.546 203.540 C 166.059 200.722,166.705 198.062,167.541 195.324 C 168.308 192.810,170.953 186.969,172.066 185.328 C 172.690 184.408,173.200 183.463,173.200 183.228 C 173.200 182.993,173.380 182.800,173.600 182.800 C 173.820 182.800,174.000 182.607,174.000 182.371 C 174.000 182.136,174.225 181.707,174.500 181.418 C 174.775 181.130,175.630 180.109,176.400 179.150 C 180.777 173.697,185.884 170.014,193.000 167.176 C 198.941 164.807,209.027 165.377,213.549 168.337 C 222.551 174.228,221.043 189.462,210.899 195.100 C 210.405 195.375,209.595 195.825,209.100 196.100 C 208.605 196.375,208.110 196.692,208.000 196.805 C 207.590 197.226,202.544 199.509,199.600 200.604 C 198.610 200.973,197.440 201.425,197.000 201.608 C 196.560 201.792,194.670 202.511,192.800 203.207 C 186.601 205.514,186.800 205.358,186.802 207.946 C 186.807 212.513,188.641 215.229,192.495 216.376 C 193.433 216.655,194.613 217.045,195.119 217.242 C 196.820 217.905,203.419 217.652,206.593 216.802 C 213.175 215.038,218.020 211.979,224.648 205.402 L 227.895 202.179 228.130 199.590 C 228.535 195.129,229.423 187.427,230.424 179.700 C 231.162 174.006,231.557 170.587,231.578 169.716 C 231.661 166.327,242.838 163.391,247.347 165.574 C 251.852 167.755,253.550 177.830,250.958 187.000 C 250.398 188.980,249.786 191.230,249.597 192.000 C 249.408 192.770,249.049 194.120,248.800 195.000 C 245.940 205.098,244.923 213.526,246.327 215.498 C 248.541 218.606,259.200 217.059,259.200 213.629 C 259.200 213.393,259.335 213.200,259.501 213.200 C 259.666 213.200,260.247 212.345,260.791 211.300 C 261.335 210.255,261.875 209.310,261.990 209.200 C 262.528 208.687,263.863 204.282,265.869 196.400 C 267.073 191.670,268.225 187.215,268.429 186.500 C 268.633 185.785,268.961 184.615,269.158 183.900 C 269.898 181.215,270.886 178.176,271.237 177.505 C 271.437 177.123,271.600 176.459,271.600 176.029 C 271.600 175.599,271.780 175.136,272.000 175.000 C 272.220 174.864,272.400 174.234,272.400 173.600 C 272.400 172.966,272.580 172.336,272.800 172.200 C 273.020 172.064,273.200 171.601,273.200 171.171 C 273.200 170.741,273.380 170.032,273.600 169.595 C 273.820 169.158,274.180 168.442,274.400 168.005 C 274.620 167.568,274.800 166.938,274.800 166.605 C 274.800 166.272,274.980 166.000,275.200 166.000 C 275.420 166.000,275.601 165.775,275.603 165.500 C 275.612 163.740,281.088 162.460,283.305 163.700 C 285.645 165.008,290.000 170.262,290.000 171.778 C 290.000 172.120,290.180 172.400,290.400 172.400 C 290.620 172.400,290.800 172.724,290.800 173.120 C 290.800 173.516,290.992 174.032,291.226 174.266 C 291.740 174.780,291.492 182.446,290.865 185.400 C 290.632 186.500,290.269 188.300,290.059 189.400 C 289.848 190.500,289.286 192.930,288.808 194.800 C 288.331 196.670,287.695 199.190,287.396 200.400 C 287.096 201.610,286.648 203.320,286.399 204.200 C 286.150 205.080,285.791 206.430,285.600 207.200 C 285.239 208.658,284.645 210.811,283.945 213.200 C 283.719 213.970,283.438 215.097,283.321 215.705 C 283.204 216.313,282.949 216.908,282.754 217.029 C 282.559 217.149,282.400 217.689,282.400 218.229 C 282.400 218.769,282.242 219.523,282.049 219.905 C 281.146 221.693,280.482 224.800,281.003 224.800 C 282.845 224.800,300.400 205.905,300.400 203.924 C 300.400 203.247,300.594 201.952,300.832 201.046 C 301.069 200.141,301.447 198.680,301.671 197.800 C 301.895 196.920,302.240 195.887,302.439 195.505 C 302.638 195.123,302.800 194.620,302.800 194.386 C 302.800 194.152,303.160 193.216,303.600 192.306 C 304.040 191.395,304.400 190.414,304.400 190.125 C 304.400 189.836,304.536 189.600,304.702 189.600 C 304.869 189.600,305.259 189.015,305.569 188.300 C 307.282 184.353,313.130 177.382,317.400 174.198 C 318.280 173.542,319.090 172.902,319.200 172.776 C 322.299 169.233,330.755 166.469,339.542 166.127 C 344.717 165.926,346.228 166.100,349.881 167.319 C 351.101 167.726,351.236 167.663,352.737 165.973 C 355.566 162.789,361.065 163.952,365.863 168.750 C 371.475 174.362,371.440 176.477,365.574 186.441 C 364.147 188.865,363.978 190.340,363.743 202.400 C 363.371 221.432,364.312 221.594,380.832 205.344 C 386.926 199.349,387.767 198.943,389.204 201.300 C 393.006 207.534,386.664 220.159,376.000 227.586 C 375.230 228.123,374.510 228.660,374.400 228.781 C 374.057 229.157,371.893 230.353,369.600 231.433 C 368.390 232.003,367.087 232.634,366.705 232.835 C 366.323 233.036,365.736 233.200,365.400 233.200 C 365.064 233.200,364.477 233.365,364.095 233.567 C 357.389 237.108,349.305 232.514,347.788 224.300 C 347.496 222.718,346.617 222.287,346.222 223.532 C 345.598 225.498,338.980 231.163,335.500 232.711 C 330.978 234.722,329.430 235.000,322.800 234.994 C 312.972 234.985,305.484 231.064,302.239 224.226 L 301.515 222.700 300.643 223.650 C 300.163 224.172,299.499 224.994,299.165 225.475 C 295.469 230.816,284.412 239.713,277.000 243.312 C 274.925 244.319,273.600 245.552,273.600 246.475 C 273.600 246.880,273.439 247.523,273.243 247.905 C 273.046 248.287,272.387 250.130,271.779 252.000 C 267.515 265.113,260.643 271.112,248.441 272.375 C 238.123 273.442,227.231 268.940,224.342 262.414 C 224.046 261.746,223.669 261.200,223.502 261.200 C 223.336 261.200,223.200 260.928,223.200 260.595 C 223.200 260.262,223.042 259.677,222.849 259.295 C 221.657 256.936,221.160 252.053,221.953 250.495 C 222.148 250.113,222.546 249.290,222.839 248.666 C 223.913 246.380,228.412 242.800,230.212 242.800 C 230.535 242.800,230.800 242.620,230.800 242.400 C 230.800 242.180,231.250 242.000,231.800 242.000 C 232.350 242.000,232.800 241.820,232.800 241.600 C 232.800 241.380,233.329 241.200,233.976 241.200 C 234.623 241.200,235.264 241.020,235.400 240.800 C 235.536 240.580,236.076 240.400,236.600 240.400 C 237.124 240.400,237.652 240.239,237.774 240.042 C 237.895 239.845,238.671 239.587,239.497 239.468 C 240.324 239.349,241.900 239.052,243.000 238.808 C 244.100 238.563,245.810 238.200,246.800 238.000 C 248.482 237.660,249.893 237.356,254.100 236.423 C 255.035 236.216,256.610 235.869,257.600 235.652 C 260.391 235.040,260.703 234.835,260.937 233.473 C 261.057 232.773,261.354 231.300,261.596 230.200 C 262.697 225.196,262.771 225.248,259.209 228.544 C 258.343 229.345,257.520 230.000,257.379 230.000 C 257.239 230.000,256.646 230.336,256.062 230.746 C 253.372 232.636,250.119 233.332,244.150 233.296 C 237.948 233.259,236.316 232.959,231.971 231.056 C 230.304 230.326,226.400 227.308,226.400 226.749 C 226.400 226.539,226.040 225.980,225.600 225.508 C 225.160 225.036,224.800 224.305,224.800 223.885 C 224.800 222.990,223.578 223.613,221.239 225.700 C 220.561 226.305,219.825 226.800,219.603 226.800 C 219.382 226.800,219.200 226.980,219.200 227.200 C 219.200 227.420,218.930 227.600,218.600 227.600 C 218.270 227.600,218.000 227.746,218.000 227.925 C 218.000 228.104,217.370 228.498,216.600 228.800 C 215.830 229.102,215.200 229.496,215.200 229.675 C 215.200 229.854,214.840 230.000,214.400 230.000 C 213.960 230.000,213.600 230.180,213.600 230.400 C 213.600 230.620,213.328 230.800,212.995 230.800 C 212.662 230.800,212.077 230.959,211.695 231.153 C 209.731 232.152,205.236 233.470,201.200 234.231 C 198.407 234.757,185.074 234.868,183.206 234.380 C 180.336 233.630,178.630 233.062,178.220 232.718 C 178.011 232.543,177.516 232.400,177.120 232.400 C 176.724 232.400,176.400 232.264,176.400 232.098 C 176.400 231.931,175.848 231.551,175.174 231.253 C 173.481 230.503,169.521 226.762,168.588 225.030 C 167.582 223.162,167.601 223.156,164.481 226.309 C 160.978 229.848,155.955 233.200,154.154 233.200 C 153.843 233.200,153.277 233.361,152.895 233.557 C 150.849 234.608,145.923 235.024,143.446 234.355 C 138.321 232.970,136.003 230.586,133.575 224.200 C 131.059 217.583,132.870 201.669,137.227 192.104 C 138.219 189.929,138.244 189.007,137.300 189.423 C 136.915 189.592,134.530 189.812,132.000 189.910 C 127.064 190.102,126.816 190.215,126.806 192.276 C 126.803 192.978,126.620 193.664,126.400 193.800 C 126.180 193.936,126.000 194.656,126.000 195.400 C 126.000 196.144,125.844 196.849,125.653 196.967 C 125.462 197.085,125.194 197.951,125.057 198.891 C 124.920 199.831,124.591 201.680,124.327 203.000 C 123.782 205.724,123.729 212.272,124.173 222.200 L 124.476 229.000 123.243 230.905 C 119.116 237.285,108.367 238.395,105.867 232.701 C 104.323 229.184,103.916 212.230,105.149 202.800 C 105.365 201.150,105.668 198.851,105.822 197.692 C 105.977 196.532,106.260 195.486,106.452 195.368 C 106.643 195.250,106.800 194.771,106.800 194.305 C 106.800 193.467,107.335 191.544,108.109 189.600 C 108.487 188.650,108.756 187.958,109.545 185.900 C 109.735 185.405,110.243 184.280,110.673 183.400 L 111.456 181.800 110.228 180.216 C 109.553 179.344,108.598 178.214,108.106 177.704 C 103.934 173.373,104.932 162.405,109.500 162.400 C 109.775 162.400,110.000 162.220,110.000 162.000 C 110.000 161.780,110.529 161.600,111.176 161.600 C 111.823 161.600,112.464 161.420,112.600 161.200 C 112.906 160.705,117.357 160.670,118.305 161.156 M345.600 177.161 C 345.270 177.334,344.597 177.684,344.105 177.938 C 343.613 178.192,342.848 178.400,342.405 178.400 C 341.962 178.400,341.600 178.580,341.600 178.800 C 341.600 179.020,341.366 179.200,341.080 179.200 C 340.344 179.200,338.407 180.141,338.403 180.500 C 338.401 180.665,338.195 180.800,337.945 180.800 C 336.691 180.800,326.800 189.602,326.800 190.718 C 326.800 190.900,326.485 191.398,326.099 191.825 C 321.804 196.579,319.926 210.800,322.895 216.083 C 325.945 221.511,336.277 219.416,341.202 212.372 C 341.730 211.617,342.271 210.910,342.405 210.800 C 342.664 210.587,344.803 206.158,345.553 204.281 C 345.799 203.666,346.004 200.876,346.008 198.081 C 346.017 192.406,347.295 180.630,348.242 177.500 C 348.472 176.741,346.809 176.528,345.600 177.161 M193.500 180.900 C 190.708 183.626,186.624 194.400,188.382 194.400 C 188.612 194.400,188.800 194.241,188.800 194.047 C 188.800 193.852,189.115 193.593,189.500 193.471 C 190.187 193.254,192.406 191.995,192.800 191.599 C 192.910 191.489,193.495 191.144,194.100 190.832 C 194.705 190.520,195.200 190.115,195.200 189.932 C 195.200 189.750,195.456 189.600,195.768 189.600 C 196.622 189.600,199.944 186.107,200.613 184.506 C 202.668 179.588,197.517 176.977,193.500 180.900 M254.000 250.818 C 253.450 250.982,251.380 251.325,249.400 251.579 C 238.688 252.955,237.220 253.273,236.154 254.451 C 234.971 255.758,236.556 258.242,239.406 259.547 C 240.063 259.847,240.913 260.252,241.295 260.447 C 242.244 260.930,246.295 260.894,246.600 260.400 C 246.736 260.180,247.105 260.000,247.419 260.000 C 248.392 260.000,251.134 257.513,252.257 255.611 C 252.651 254.945,253.114 254.400,253.286 254.400 C 253.459 254.400,253.600 254.203,253.600 253.962 C 253.600 253.721,253.974 252.998,254.431 252.356 C 255.453 250.921,255.314 250.426,254.000 250.818 " stroke="none" fill="#c3d3eb" fill-rule="evenodd"></path><path id="path2" d="M80.500 128.676 C 80.885 128.776,81.515 128.776,81.900 128.676 C 82.285 128.575,81.970 128.493,81.200 128.493 C 80.430 128.493,80.115 128.575,80.500 128.676 M90.082 144.696 C 91.558 144.773,94.078 144.773,95.682 144.697 C 97.287 144.621,96.080 144.558,93.000 144.558 C 89.920 144.557,88.607 144.619,90.082 144.696 M114.900 161.476 C 115.285 161.576,115.915 161.576,116.300 161.476 C 116.685 161.375,116.370 161.293,115.600 161.293 C 114.830 161.293,114.515 161.375,114.900 161.476 M77.500 171.082 C 77.995 171.178,78.805 171.178,79.300 171.082 C 79.795 170.987,79.390 170.909,78.400 170.909 C 77.410 170.909,77.005 170.987,77.500 171.082 M291.293 177.600 C 291.293 178.370,291.375 178.685,291.476 178.300 C 291.576 177.915,291.576 177.285,291.476 176.900 C 291.375 176.515,291.293 176.830,291.293 177.600 M87.300 185.876 C 87.685 185.976,88.315 185.976,88.700 185.876 C 89.085 185.775,88.770 185.693,88.000 185.693 C 87.230 185.693,86.915 185.775,87.300 185.876 M321.100 234.689 C 321.815 234.778,322.985 234.778,323.700 234.689 C 324.415 234.601,323.830 234.528,322.400 234.528 C 320.970 234.528,320.385 234.601,321.100 234.689 " stroke="none" fill="#84849c" fill-rule="evenodd"></path><path id="path3" d="M66.500 128.676 C 66.885 128.776,67.515 128.776,67.900 128.676 C 68.285 128.575,67.970 128.493,67.200 128.493 C 66.430 128.493,66.115 128.575,66.500 128.676 M83.700 128.691 C 84.525 128.778,85.875 128.778,86.700 128.691 C 87.525 128.605,86.850 128.534,85.200 128.534 C 83.550 128.534,82.875 128.605,83.700 128.691 M78.319 144.698 C 80.144 144.772,83.024 144.772,84.719 144.697 C 86.414 144.622,84.920 144.561,81.400 144.562 C 77.880 144.562,76.494 144.624,78.319 144.698 M69.700 170.687 C 70.305 170.778,71.295 170.778,71.900 170.687 C 72.505 170.595,72.010 170.520,70.800 170.520 C 69.590 170.520,69.095 170.595,69.700 170.687 M81.091 171.089 C 81.801 171.177,83.061 171.179,83.891 171.092 C 84.721 171.005,84.140 170.933,82.600 170.931 C 81.060 170.929,80.381 171.000,81.091 171.089 M218.909 180.000 C 218.909 180.990,218.987 181.395,219.082 180.900 C 219.178 180.405,219.178 179.595,219.082 179.100 C 218.987 178.605,218.909 179.010,218.909 180.000 M66.105 185.087 C 66.714 185.179,67.614 185.177,68.105 185.082 C 68.597 184.987,68.100 184.911,67.000 184.914 C 65.900 184.917,65.497 184.995,66.105 185.087 M84.705 185.883 C 85.202 185.979,85.922 185.975,86.305 185.875 C 86.687 185.775,86.280 185.696,85.400 185.701 C 84.520 185.705,84.207 185.787,84.705 185.883 M362.914 202.600 C 362.917 203.700,362.995 204.103,363.087 203.495 C 363.179 202.886,363.177 201.986,363.082 201.495 C 362.987 201.003,362.911 201.500,362.914 202.600 M389.709 206.400 C 389.709 207.390,389.787 207.795,389.882 207.300 C 389.978 206.805,389.978 205.995,389.882 205.500 C 389.787 205.005,389.709 205.410,389.709 206.400 M320.934 208.400 C 320.934 210.050,321.005 210.725,321.091 209.900 C 321.178 209.075,321.178 207.725,321.091 206.900 C 321.005 206.075,320.934 206.750,320.934 208.400 M362.893 208.400 C 362.893 209.170,362.975 209.485,363.076 209.100 C 363.176 208.715,363.176 208.085,363.076 207.700 C 362.975 207.315,362.893 207.630,362.893 208.400 M123.293 213.200 C 123.293 213.970,123.375 214.285,123.476 213.900 C 123.576 213.515,123.576 212.885,123.476 212.500 C 123.375 212.115,123.293 212.430,123.293 213.200 M40.705 235.883 C 41.202 235.979,41.922 235.975,42.305 235.875 C 42.687 235.775,42.280 235.696,41.400 235.701 C 40.520 235.705,40.207 235.787,40.705 235.883 " stroke="none" fill="#8c8da6" fill-rule="evenodd"></path><path id="path4" d="M72.316 128.297 C 73.699 128.375,75.859 128.374,77.116 128.295 C 78.372 128.216,77.240 128.152,74.600 128.153 C 71.960 128.153,70.932 128.218,72.316 128.297 M63.500 128.682 C 63.995 128.778,64.805 128.778,65.300 128.682 C 65.795 128.587,65.390 128.509,64.400 128.509 C 63.410 128.509,63.005 128.587,63.500 128.682 M90.482 128.696 C 91.958 128.773,94.478 128.773,96.082 128.697 C 97.687 128.621,96.480 128.558,93.400 128.558 C 90.320 128.557,89.007 128.619,90.482 128.696 M242.900 165.076 C 243.285 165.176,243.915 165.176,244.300 165.076 C 244.685 164.975,244.370 164.893,243.600 164.893 C 242.830 164.893,242.515 164.975,242.900 165.076 M73.505 170.683 C 74.002 170.779,74.722 170.775,75.105 170.675 C 75.487 170.575,75.080 170.496,74.200 170.501 C 73.320 170.505,73.007 170.587,73.505 170.683 M87.315 171.096 C 88.588 171.176,90.568 171.175,91.715 171.094 C 92.862 171.014,91.820 170.949,89.400 170.950 C 86.980 170.951,86.042 171.016,87.315 171.096 M330.175 186.100 L 329.000 187.400 330.300 186.225 C 331.015 185.579,331.600 184.994,331.600 184.925 C 331.600 184.616,331.270 184.888,330.175 186.100 M77.905 185.483 C 78.402 185.579,79.122 185.575,79.505 185.475 C 79.887 185.375,79.480 185.296,78.600 185.301 C 77.720 185.305,77.407 185.387,77.905 185.483 M363.293 194.800 C 363.293 195.570,363.375 195.885,363.476 195.500 C 363.576 195.115,363.576 194.485,363.476 194.100 C 363.375 193.715,363.293 194.030,363.293 194.800 M346.137 199.400 C 346.139 201.160,346.209 201.830,346.293 200.889 C 346.378 199.949,346.377 198.509,346.291 197.689 C 346.205 196.870,346.136 197.640,346.137 199.400 M380.788 205.900 L 378.200 208.600 380.900 206.012 C 382.385 204.588,383.600 203.373,383.600 203.312 C 383.600 203.017,383.193 203.392,380.788 205.900 M362.901 205.800 C 362.905 206.680,362.987 206.993,363.083 206.495 C 363.179 205.998,363.175 205.278,363.075 204.895 C 362.975 204.513,362.896 204.920,362.901 205.800 M186.109 207.600 C 186.109 208.590,186.187 208.995,186.282 208.500 C 186.378 208.005,186.378 207.195,186.282 206.700 C 186.187 206.205,186.109 206.610,186.109 207.600 M123.324 209.800 C 123.326 211.120,123.401 211.612,123.490 210.893 C 123.579 210.174,123.577 209.094,123.486 208.493 C 123.395 207.892,123.322 208.480,123.324 209.800 M292.175 214.900 L 291.000 216.200 292.300 215.025 C 293.512 213.930,293.784 213.600,293.475 213.600 C 293.406 213.600,292.821 214.185,292.175 214.900 M339.178 215.100 L 337.800 216.600 339.300 215.222 C 340.696 213.938,340.984 213.600,340.678 213.600 C 340.612 213.600,339.937 214.275,339.178 215.100 M288.585 218.500 L 286.600 220.600 288.700 218.615 C 290.651 216.771,290.983 216.400,290.685 216.400 C 290.622 216.400,289.677 217.345,288.585 218.500 M104.528 220.800 C 104.528 222.230,104.601 222.815,104.689 222.100 C 104.778 221.385,104.778 220.215,104.689 219.500 C 104.601 218.785,104.528 219.370,104.528 220.800 M164.975 225.300 L 163.800 226.600 165.100 225.425 C 166.312 224.330,166.584 224.000,166.275 224.000 C 166.206 224.000,165.621 224.585,164.975 225.300 M56.493 225.600 C 56.493 226.370,56.575 226.685,56.676 226.300 C 56.776 225.915,56.776 225.285,56.676 224.900 C 56.575 224.515,56.493 224.830,56.493 225.600 M124.114 226.600 C 124.117 227.700,124.195 228.103,124.287 227.495 C 124.379 226.886,124.377 225.986,124.282 225.495 C 124.187 225.003,124.111 225.500,124.114 226.600 M240.900 233.087 C 241.505 233.178,242.495 233.178,243.100 233.087 C 243.705 232.995,243.210 232.920,242.000 232.920 C 240.790 232.920,240.295 232.995,240.900 233.087 M246.305 233.083 C 246.802 233.179,247.522 233.175,247.905 233.075 C 248.287 232.975,247.880 232.896,247.000 232.901 C 246.120 232.905,245.807 232.987,246.305 233.083 M145.300 234.287 C 145.905 234.378,146.895 234.378,147.500 234.287 C 148.105 234.195,147.610 234.120,146.400 234.120 C 145.190 234.120,144.695 234.195,145.300 234.287 M357.100 234.282 C 357.595 234.378,358.405 234.378,358.900 234.282 C 359.395 234.187,358.990 234.109,358.000 234.109 C 357.010 234.109,356.605 234.187,357.100 234.282 M43.300 235.876 C 43.685 235.976,44.315 235.976,44.700 235.876 C 45.085 235.775,44.770 235.693,44.000 235.693 C 43.230 235.693,42.915 235.775,43.300 235.876 M243.700 261.076 C 244.085 261.176,244.715 261.176,245.100 261.076 C 245.485 260.975,245.170 260.893,244.400 260.893 C 243.630 260.893,243.315 260.975,243.700 261.076 " stroke="none" fill="#989cb5" fill-rule="evenodd"></path><path id="path5" d="M71.682 128.696 C 73.158 128.773,75.678 128.773,77.282 128.697 C 78.887 128.621,77.680 128.558,74.600 128.558 C 71.520 128.557,70.207 128.619,71.682 128.696 M62.713 129.095 C 63.876 129.176,65.676 129.176,66.713 129.093 C 67.751 129.011,66.800 128.945,64.600 128.946 C 62.400 128.947,61.551 129.014,62.713 129.095 M90.073 129.099 C 94.404 129.164,101.604 129.164,106.073 129.100 C 110.543 129.035,107.000 128.982,98.200 128.982 C 89.400 128.982,85.743 129.035,90.073 129.099 M55.700 129.876 C 56.085 129.976,56.715 129.976,57.100 129.876 C 57.485 129.775,57.170 129.693,56.400 129.693 C 55.630 129.693,55.315 129.775,55.700 129.876 M37.200 135.200 C 36.430 135.622,35.980 135.966,36.200 135.966 C 36.420 135.966,37.230 135.622,38.000 135.200 C 38.770 134.778,39.220 134.434,39.000 134.434 C 38.780 134.434,37.970 134.778,37.200 135.200 M51.800 144.794 C 51.260 145.034,51.607 145.077,52.866 144.925 C 54.538 144.724,54.751 144.789,54.919 145.556 C 55.095 146.359,55.103 146.356,55.053 145.506 C 54.994 144.499,53.297 144.127,51.800 144.794 M74.150 144.987 C 74.026 145.310,74.017 145.805,74.131 146.087 C 74.244 146.369,74.351 146.210,74.368 145.733 C 74.386 145.257,74.625 144.776,74.900 144.665 C 75.292 144.507,75.289 144.456,74.887 144.432 C 74.606 144.414,74.274 144.664,74.150 144.987 M100.900 144.697 C 102.385 144.774,104.815 144.774,106.300 144.697 C 107.785 144.620,106.570 144.557,103.600 144.557 C 100.630 144.557,99.415 144.620,100.900 144.697 M73.449 148.215 C 73.312 148.573,73.218 149.256,73.241 149.733 C 73.267 150.281,73.403 150.086,73.610 149.203 C 73.960 147.716,73.865 147.133,73.449 148.215 M34.600 151.844 L 33.000 153.276 34.700 152.004 C 36.163 150.910,36.691 150.383,36.300 150.406 C 36.245 150.409,35.480 151.056,34.600 151.844 M23.309 152.400 C 23.309 153.390,23.387 153.795,23.482 153.300 C 23.578 152.805,23.578 151.995,23.482 151.500 C 23.387 151.005,23.309 151.410,23.309 152.400 M30.185 155.700 L 28.200 157.800 30.300 155.815 C 31.455 154.723,32.400 153.778,32.400 153.715 C 32.400 153.417,32.029 153.749,30.185 155.700 M112.500 161.876 C 112.885 161.976,113.515 161.976,113.900 161.876 C 114.285 161.775,113.970 161.693,113.200 161.693 C 112.430 161.693,112.115 161.775,112.500 161.876 M120.411 163.059 C 120.955 163.422,122.130 164.367,123.022 165.159 C 123.915 165.952,123.681 165.655,122.504 164.500 C 121.326 163.345,120.151 162.400,119.892 162.400 C 119.634 162.400,119.867 162.697,120.411 163.059 M279.700 163.876 C 280.085 163.976,280.715 163.976,281.100 163.876 C 281.485 163.775,281.170 163.693,280.400 163.693 C 279.630 163.693,279.315 163.775,279.700 163.876 M69.246 164.467 C 69.221 164.834,69.096 165.464,68.970 165.867 C 68.752 166.562,68.763 166.563,69.197 165.887 C 69.448 165.496,69.573 164.866,69.473 164.487 C 69.311 163.868,69.288 163.866,69.246 164.467 M276.441 165.414 C 275.759 166.192,275.202 166.957,275.204 167.114 C 275.207 167.271,275.682 166.800,276.259 166.067 C 276.837 165.333,277.690 164.580,278.155 164.392 C 278.775 164.141,278.825 164.044,278.341 164.025 C 277.979 164.011,277.124 164.636,276.441 165.414 M285.616 166.600 C 286.598 167.700,287.725 169.050,288.119 169.600 C 288.810 170.566,288.811 170.556,288.129 169.297 C 287.741 168.580,286.615 167.230,285.626 166.297 L 283.829 164.600 285.616 166.600 M357.233 164.943 C 357.325 165.021,358.030 165.201,358.800 165.342 C 359.785 165.523,360.022 165.482,359.600 165.206 C 359.058 164.850,356.837 164.603,357.233 164.943 M242.900 165.476 C 243.285 165.576,243.915 165.576,244.300 165.476 C 244.685 165.375,244.370 165.293,243.600 165.293 C 242.830 165.293,242.515 165.375,242.900 165.476 M246.746 166.216 C 247.486 166.537,248.206 166.794,248.346 166.786 C 248.866 166.757,246.576 165.628,246.000 165.630 C 245.670 165.631,246.006 165.894,246.746 166.216 M198.700 166.682 C 199.195 166.778,200.005 166.778,200.500 166.682 C 200.995 166.587,200.590 166.509,199.600 166.509 C 198.610 166.509,198.205 166.587,198.700 166.682 M205.905 166.683 C 206.402 166.779,207.122 166.775,207.505 166.675 C 207.887 166.575,207.480 166.496,206.600 166.501 C 205.720 166.505,205.407 166.587,205.905 166.683 M338.900 166.694 C 339.945 166.776,341.655 166.776,342.700 166.694 C 343.745 166.612,342.890 166.544,340.800 166.544 C 338.710 166.544,337.855 166.612,338.900 166.694 M46.846 168.067 C 46.821 168.434,46.696 169.064,46.570 169.467 C 46.352 170.162,46.363 170.163,46.797 169.487 C 47.048 169.096,47.173 168.466,47.073 168.087 C 46.911 167.468,46.888 167.466,46.846 168.067 M105.852 168.500 C 105.522 169.733,105.550 171.703,105.906 172.260 C 106.068 172.513,106.203 171.568,106.208 170.160 C 106.216 167.311,106.196 167.217,105.852 168.500 M232.101 171.000 C 232.105 171.880,232.187 172.193,232.283 171.695 C 232.379 171.198,232.375 170.478,232.275 170.095 C 232.175 169.713,232.096 170.120,232.101 171.000 M68.353 170.915 C 68.527 171.088,70.544 171.177,72.835 171.112 L 77.000 170.996 72.518 170.798 C 70.053 170.689,68.179 170.742,68.353 170.915 M152.794 173.003 C 154.387 174.921,154.521 175.045,154.086 174.196 C 153.859 173.753,153.252 173.034,152.737 172.598 C 151.833 171.834,151.835 171.848,152.794 173.003 M95.293 174.000 C 95.293 174.770,95.375 175.085,95.476 174.700 C 95.576 174.315,95.576 173.685,95.476 173.300 C 95.375 172.915,95.293 173.230,95.293 174.000 M231.693 174.400 C 231.693 175.170,231.775 175.485,231.876 175.100 C 231.976 174.715,231.976 174.085,231.876 173.700 C 231.775 173.315,231.693 173.630,231.693 174.400 M251.282 178.050 C 251.237 179.947,251.111 182.108,251.001 182.850 L 250.803 184.200 251.217 182.885 C 251.444 182.162,251.571 180.002,251.498 178.085 L 251.365 174.600 251.282 178.050 M369.301 176.200 C 369.305 177.080,369.387 177.393,369.483 176.895 C 369.579 176.398,369.575 175.678,369.475 175.295 C 369.375 174.913,369.296 175.320,369.301 176.200 M179.206 176.594 C 178.463 177.361,177.932 178.050,178.027 178.125 C 178.122 178.200,178.806 177.573,179.546 176.731 C 181.229 174.818,181.012 174.731,179.206 176.594 M130.540 176.494 C 131.111 176.859,135.952 176.842,136.887 176.472 C 137.264 176.322,135.887 176.200,133.827 176.200 C 131.766 176.200,130.287 176.332,130.540 176.494 M313.381 178.500 L 311.800 180.200 313.500 178.619 C 315.081 177.148,315.384 176.800,315.081 176.800 C 315.016 176.800,314.251 177.565,313.381 178.500 M348.656 178.084 C 348.521 178.588,348.427 179.360,348.446 179.800 C 348.465 180.240,348.645 179.898,348.846 179.040 C 349.236 177.378,349.070 176.540,348.656 178.084 M196.526 178.314 C 196.266 178.479,196.806 178.632,197.726 178.654 C 198.931 178.681,199.176 178.603,198.600 178.374 C 197.557 177.960,197.104 177.946,196.526 178.314 M191.831 181.272 C 191.044 182.192,190.400 183.132,190.400 183.361 C 190.400 183.590,190.698 183.333,191.061 182.789 C 191.425 182.245,192.179 181.305,192.736 180.700 C 193.294 180.095,193.640 179.600,193.506 179.600 C 193.372 179.600,192.618 180.352,191.831 181.272 M29.206 181.794 C 28.463 182.561,27.932 183.250,28.027 183.325 C 28.122 183.400,28.806 182.773,29.546 181.931 C 31.229 180.018,31.012 179.931,29.206 181.794 M290.600 182.000 C 290.446 182.910,290.404 183.738,290.507 183.840 C 290.610 183.943,290.813 183.277,290.960 182.360 C 291.107 181.443,291.148 180.615,291.053 180.520 C 290.958 180.424,290.754 181.090,290.600 182.000 M310.801 181.398 C 310.286 181.948,309.939 182.464,310.032 182.546 C 310.124 182.628,310.619 182.178,311.130 181.547 C 312.276 180.135,312.074 180.044,310.801 181.398 M174.893 181.900 C 173.857 183.396,173.521 184.000,173.723 184.000 C 173.817 184.000,174.370 183.280,174.953 182.400 C 176.136 180.612,176.084 180.179,174.893 181.900 M201.701 182.200 C 201.705 183.080,201.787 183.393,201.883 182.895 C 201.979 182.398,201.975 181.678,201.875 181.295 C 201.775 180.913,201.696 181.320,201.701 182.200 M218.446 183.267 C 218.421 183.634,218.296 184.264,218.170 184.667 C 217.952 185.362,217.963 185.363,218.397 184.687 C 218.648 184.296,218.773 183.666,218.673 183.287 C 218.511 182.668,218.488 182.666,218.446 183.267 M230.501 184.200 C 230.505 185.080,230.587 185.393,230.683 184.895 C 230.779 184.398,230.775 183.678,230.675 183.295 C 230.575 182.913,230.496 183.320,230.501 184.200 M347.701 184.600 C 347.705 185.480,347.787 185.793,347.883 185.295 C 347.979 184.798,347.975 184.078,347.875 183.695 C 347.775 183.313,347.696 183.720,347.701 184.600 M329.588 186.300 L 327.000 189.000 329.700 186.412 C 331.185 184.988,332.400 183.773,332.400 183.712 C 332.400 183.417,331.993 183.792,329.588 186.300 M65.907 184.690 C 66.626 184.779,67.706 184.777,68.307 184.686 C 68.908 184.595,68.320 184.522,67.000 184.524 C 65.680 184.526,65.188 184.601,65.907 184.690 M71.900 185.095 C 73.055 185.176,74.945 185.176,76.100 185.095 C 77.255 185.014,76.310 184.948,74.000 184.948 C 71.690 184.948,70.745 185.014,71.900 185.095 M157.049 185.415 C 156.912 185.773,156.815 186.366,156.834 186.733 C 156.853 187.100,157.027 186.869,157.221 186.220 C 157.598 184.958,157.465 184.333,157.049 185.415 M83.107 185.490 C 83.826 185.579,84.906 185.577,85.507 185.486 C 86.108 185.395,85.520 185.322,84.200 185.324 C 82.880 185.326,82.388 185.401,83.107 185.490 M289.849 185.815 C 289.712 186.173,289.618 186.856,289.641 187.333 C 289.667 187.881,289.803 187.686,290.010 186.803 C 290.360 185.316,290.265 184.733,289.849 185.815 M39.105 187.483 C 39.602 187.579,40.322 187.575,40.705 187.475 C 41.087 187.375,40.680 187.296,39.800 187.301 C 38.920 187.305,38.607 187.387,39.105 187.483 M28.711 188.293 C 29.651 188.378,31.091 188.377,31.911 188.291 C 32.730 188.205,31.960 188.136,30.200 188.137 C 28.440 188.139,27.770 188.209,28.711 188.293 M188.249 188.615 C 188.112 188.973,188.015 189.566,188.034 189.933 C 188.053 190.300,188.227 190.069,188.421 189.420 C 188.798 188.158,188.665 187.533,188.249 188.615 M363.400 189.600 C 363.246 190.510,363.204 191.338,363.307 191.440 C 363.410 191.543,363.613 190.877,363.760 189.960 C 363.907 189.043,363.948 188.215,363.853 188.120 C 363.758 188.024,363.554 188.690,363.400 189.600 M41.246 188.867 C 41.221 189.234,41.096 189.864,40.970 190.267 C 40.752 190.962,40.763 190.963,41.197 190.287 C 41.448 189.896,41.573 189.266,41.473 188.887 C 41.311 188.268,41.288 188.266,41.246 188.867 M215.226 190.107 C 214.087 191.511,214.042 191.629,214.963 190.800 C 215.920 189.938,217.056 188.386,216.714 188.407 C 216.651 188.411,215.982 189.176,215.226 190.107 M134.705 189.083 C 135.202 189.179,135.922 189.175,136.305 189.075 C 136.687 188.975,136.280 188.896,135.400 188.901 C 134.520 188.905,134.207 188.987,134.705 189.083 M229.714 191.000 C 229.717 192.100,229.795 192.503,229.887 191.895 C 229.979 191.286,229.977 190.386,229.882 189.895 C 229.787 189.403,229.711 189.900,229.714 191.000 M346.931 192.200 C 346.933 193.740,347.005 194.321,347.092 193.491 C 347.179 192.661,347.177 191.401,347.089 190.691 C 347.000 189.981,346.929 190.660,346.931 192.200 M155.449 191.415 C 155.312 191.773,155.215 192.366,155.234 192.733 C 155.253 193.100,155.427 192.869,155.621 192.220 C 155.998 190.958,155.865 190.333,155.449 191.415 M189.466 194.233 C 188.549 194.856,187.680 195.163,187.273 195.009 C 186.739 194.806,186.702 194.855,187.092 195.248 C 187.632 195.793,188.492 195.466,190.400 193.991 C 191.852 192.869,191.241 193.027,189.466 194.233 M154.649 194.215 C 154.512 194.573,154.415 195.166,154.434 195.533 C 154.453 195.900,154.627 195.669,154.821 195.020 C 155.198 193.758,155.065 193.133,154.649 194.215 M125.049 195.415 C 124.912 195.773,124.815 196.366,124.834 196.733 C 124.853 197.100,125.027 196.869,125.221 196.220 C 125.598 194.958,125.465 194.333,125.049 195.415 M362.924 197.000 C 362.926 198.320,363.001 198.812,363.090 198.093 C 363.179 197.374,363.177 196.294,363.086 195.693 C 362.995 195.092,362.922 195.680,362.924 197.000 M106.629 196.629 C 106.481 197.215,106.438 197.772,106.532 197.866 C 106.627 197.960,106.824 197.558,106.971 196.971 C 107.119 196.385,107.162 195.828,107.068 195.734 C 106.973 195.640,106.776 196.042,106.629 196.629 M228.909 197.600 C 228.909 198.590,228.987 198.995,229.082 198.500 C 229.178 198.005,229.178 197.195,229.082 196.700 C 228.987 196.205,228.909 196.610,228.909 197.600 M346.540 199.600 C 346.540 201.470,346.609 202.235,346.693 201.300 C 346.777 200.365,346.777 198.835,346.693 197.900 C 346.609 196.965,346.540 197.730,346.540 199.600 M287.050 198.050 C 286.717 199.717,287.040 200.040,287.400 198.400 C 287.552 197.709,287.593 197.059,287.491 196.958 C 287.389 196.856,287.191 197.347,287.050 198.050 M124.200 199.200 C 124.048 199.891,124.007 200.541,124.109 200.642 C 124.211 200.744,124.409 200.253,124.550 199.550 C 124.883 197.883,124.560 197.560,124.200 199.200 M301.829 199.429 C 301.681 200.015,301.638 200.572,301.732 200.666 C 301.827 200.760,302.024 200.358,302.171 199.771 C 302.319 199.185,302.362 198.628,302.268 198.534 C 302.173 198.440,301.976 198.842,301.829 199.429 M362.469 204.600 C 362.457 207.460,362.582 210.520,362.747 211.400 C 362.915 212.289,362.983 210.246,362.900 206.800 C 362.711 198.935,362.500 197.854,362.469 204.600 M105.818 201.818 C 105.665 202.839,105.622 203.755,105.722 203.855 C 105.822 203.955,106.029 203.202,106.182 202.182 C 106.335 201.161,106.378 200.245,106.278 200.145 C 106.178 200.045,105.971 200.798,105.818 201.818 M265.000 202.000 C 264.848 202.691,264.807 203.341,264.909 203.442 C 265.011 203.544,265.209 203.053,265.350 202.350 C 265.683 200.683,265.360 200.360,265.000 202.000 M380.595 206.500 L 375.000 212.200 380.786 206.600 C 383.968 203.520,386.653 200.955,386.753 200.900 C 386.852 200.845,386.766 200.800,386.561 200.800 C 386.357 200.800,383.672 203.365,380.595 206.500 M123.456 202.484 C 123.321 202.988,123.230 203.940,123.253 204.600 C 123.281 205.428,123.397 205.184,123.626 203.813 C 123.976 201.723,123.874 200.926,123.456 202.484 M37.800 203.200 C 37.648 203.891,37.607 204.541,37.709 204.642 C 37.811 204.744,38.009 204.253,38.150 203.550 C 38.483 201.883,38.160 201.560,37.800 203.200 M320.893 203.600 C 320.893 204.370,320.975 204.685,321.076 204.300 C 321.176 203.915,321.176 203.285,321.076 202.900 C 320.975 202.515,320.893 202.830,320.893 203.600 M58.649 205.015 C 58.512 205.373,58.418 206.056,58.441 206.533 C 58.467 207.081,58.603 206.886,58.810 206.003 C 59.160 204.516,59.065 203.933,58.649 205.015 M133.856 205.284 C 133.721 205.788,133.627 206.560,133.646 207.000 C 133.665 207.440,133.845 207.098,134.046 206.240 C 134.436 204.578,134.270 203.740,133.856 205.284 M245.456 205.284 C 245.321 205.788,245.227 206.560,245.246 207.000 C 245.265 207.440,245.445 207.098,245.646 206.240 C 246.036 204.578,245.870 203.740,245.456 205.284 M37.022 207.822 C 36.872 208.625,36.828 209.362,36.926 209.460 C 37.024 209.557,37.227 208.981,37.378 208.178 C 37.528 207.375,37.572 206.638,37.474 206.540 C 37.376 206.443,37.173 207.019,37.022 207.822 M161.592 210.700 L 157.800 214.600 161.700 210.808 C 165.322 207.286,165.782 206.800,165.492 206.800 C 165.433 206.800,163.678 208.555,161.592 210.700 M320.514 208.600 C 320.517 209.700,320.595 210.103,320.687 209.495 C 320.779 208.886,320.777 207.986,320.682 207.495 C 320.587 207.003,320.511 207.500,320.514 208.600 M122.928 209.600 C 122.928 211.030,123.001 211.615,123.089 210.900 C 123.178 210.185,123.178 209.015,123.089 208.300 C 123.001 207.585,122.928 208.170,122.928 209.600 M105.324 209.800 C 105.326 211.120,105.401 211.612,105.490 210.893 C 105.579 210.174,105.577 209.094,105.486 208.493 C 105.395 207.892,105.322 208.480,105.324 209.800 M57.869 209.556 C 57.721 210.295,57.620 211.282,57.644 211.750 C 57.668 212.218,57.847 211.790,58.042 210.800 C 58.237 209.810,58.338 208.823,58.267 208.606 C 58.196 208.390,58.017 208.817,57.869 209.556 M221.170 209.500 L 220.200 210.600 221.400 209.600 C 222.060 209.050,222.675 208.555,222.767 208.500 C 222.858 208.445,222.755 208.400,222.536 208.400 C 222.318 208.400,221.703 208.895,221.170 209.500 M244.614 210.701 C 244.470 211.746,244.498 212.994,244.676 213.475 C 244.899 214.077,245.015 213.485,245.047 211.574 C 245.103 208.323,244.976 208.067,244.614 210.701 M150.250 210.450 C 149.917 212.117,150.240 212.440,150.600 210.800 C 150.752 210.109,150.793 209.459,150.691 209.358 C 150.589 209.256,150.391 209.747,150.250 210.450 M133.293 210.800 C 133.293 211.570,133.375 211.885,133.476 211.500 C 133.576 211.115,133.576 210.485,133.476 210.100 C 133.375 209.715,133.293 210.030,133.293 210.800 M36.255 213.055 C 36.113 214.086,36.074 215.008,36.169 215.102 C 36.263 215.196,36.465 214.439,36.618 213.418 C 36.771 212.398,36.810 211.476,36.704 211.371 C 36.598 211.265,36.396 212.023,36.255 213.055 M320.806 212.833 C 320.809 213.365,320.989 214.070,321.206 214.400 C 321.482 214.822,321.523 214.585,321.342 213.600 C 321.025 211.875,320.798 211.549,320.806 212.833 M104.878 218.800 C 104.860 222.430,104.977 226.120,105.138 227.000 C 105.411 228.498,105.310 214.737,105.036 213.000 C 104.966 212.560,104.895 215.170,104.878 218.800 M187.128 213.400 C 187.563 214.273,189.049 215.709,190.000 216.175 C 190.330 216.337,190.151 216.105,189.601 215.659 C 189.052 215.213,188.181 214.342,187.666 213.724 C 187.131 213.083,186.900 212.944,187.128 213.400 M290.393 217.100 L 286.200 221.400 290.500 217.207 C 294.494 213.313,294.982 212.800,294.693 212.800 C 294.634 212.800,292.699 214.735,290.393 217.100 M258.825 214.969 L 257.450 216.600 259.005 215.113 C 259.860 214.296,260.479 213.562,260.380 213.483 C 260.281 213.403,259.581 214.072,258.825 214.969 M339.600 215.000 C 338.628 215.990,337.923 216.800,338.033 216.800 C 338.143 216.800,339.028 215.990,340.000 215.000 C 340.972 214.010,341.677 213.200,341.567 213.200 C 341.457 213.200,340.572 214.010,339.600 215.000 M149.709 215.200 C 149.709 216.190,149.787 216.595,149.882 216.100 C 149.978 215.605,149.978 214.795,149.882 214.300 C 149.787 213.805,149.709 214.210,149.709 215.200 M245.200 215.538 C 245.200 215.724,245.588 216.219,246.062 216.638 L 246.924 217.400 246.216 216.300 C 245.486 215.166,245.200 214.951,245.200 215.538 M56.901 217.000 C 56.905 217.880,56.987 218.193,57.083 217.695 C 57.179 217.198,57.175 216.478,57.075 216.095 C 56.975 215.713,56.896 216.120,56.901 217.000 M123.346 219.800 C 123.347 222.000,123.414 222.849,123.495 221.687 C 123.576 220.524,123.576 218.724,123.493 217.687 C 123.411 216.649,123.345 217.600,123.346 219.800 M250.500 218.276 C 250.885 218.376,251.515 218.376,251.900 218.276 C 252.285 218.175,251.970 218.093,251.200 218.093 C 250.430 218.093,250.115 218.175,250.500 218.276 M198.900 218.687 C 199.505 218.778,200.495 218.778,201.100 218.687 C 201.705 218.595,201.210 218.520,200.000 218.520 C 198.790 218.520,198.295 218.595,198.900 218.687 M35.748 223.200 C 35.748 225.510,35.814 226.455,35.895 225.300 C 35.976 224.145,35.976 222.255,35.895 221.100 C 35.814 219.945,35.748 220.890,35.748 223.200 M328.305 219.883 C 328.802 219.979,329.522 219.975,329.905 219.875 C 330.287 219.775,329.880 219.696,329.000 219.701 C 328.120 219.705,327.807 219.787,328.305 219.883 M346.589 221.612 C 346.195 222.048,345.976 222.509,346.103 222.637 C 346.231 222.764,346.549 222.469,346.811 221.980 C 347.189 221.274,347.358 221.205,347.637 221.646 C 347.866 222.008,347.990 222.035,347.994 221.724 C 348.005 220.860,347.319 220.806,346.589 221.612 M380.378 223.100 L 379.000 224.600 380.500 223.222 C 381.896 221.938,382.184 221.600,381.878 221.600 C 381.812 221.600,381.137 222.275,380.378 223.100 M222.993 223.206 C 222.166 223.863,221.624 224.400,221.787 224.400 C 221.951 224.400,222.633 223.939,223.303 223.375 C 224.249 222.579,224.596 222.467,224.855 222.875 C 225.086 223.239,225.190 223.254,225.194 222.924 C 225.206 221.949,224.453 222.046,222.993 223.206 M164.455 225.316 L 161.910 228.200 164.610 225.438 C 167.101 222.890,167.376 222.717,168.155 223.202 C 168.923 223.680,168.950 223.668,168.451 223.064 C 167.583 222.014,167.159 222.253,164.455 225.316 M299.375 223.868 C 298.759 224.676,298.459 225.211,298.709 225.056 C 299.221 224.740,300.953 222.400,300.675 222.400 C 300.576 222.400,299.991 223.061,299.375 223.868 M262.583 224.427 C 262.385 224.747,262.441 224.822,262.738 224.638 C 263.033 224.456,263.217 224.687,263.246 225.276 C 263.284 226.019,263.330 226.055,263.484 225.458 C 263.723 224.528,263.019 223.722,262.583 224.427 M56.131 227.000 C 56.133 228.540,56.205 229.121,56.292 228.291 C 56.379 227.461,56.377 226.201,56.289 225.491 C 56.200 224.781,56.129 225.460,56.131 227.000 M123.720 226.400 C 123.720 227.610,123.795 228.105,123.887 227.500 C 123.978 226.895,123.978 225.905,123.887 225.300 C 123.795 224.695,123.720 225.190,123.720 226.400 M219.585 226.029 L 218.200 227.258 219.700 226.181 C 221.026 225.230,221.457 224.800,221.085 224.800 C 221.022 224.800,220.347 225.353,219.585 226.029 M303.991 225.988 C 304.457 226.641,305.042 227.302,305.291 227.456 C 305.541 227.611,305.241 227.076,304.625 226.268 C 303.288 224.515,302.784 224.292,303.991 225.988 M293.992 229.900 L 290.200 233.800 294.100 230.008 C 296.245 227.922,298.000 226.167,298.000 226.108 C 298.000 225.818,297.514 226.278,293.992 229.900 M171.800 228.000 C 172.659 228.880,173.452 229.600,173.562 229.600 C 173.672 229.600,173.059 228.880,172.200 228.000 C 171.341 227.120,170.548 226.400,170.438 226.400 C 170.328 226.400,170.941 227.120,171.800 228.000 M340.575 228.500 L 339.400 229.800 340.700 228.625 C 341.415 227.979,342.000 227.394,342.000 227.325 C 342.000 227.016,341.670 227.288,340.575 228.500 M54.626 231.500 C 53.762 232.605,53.693 232.790,54.363 232.204 C 55.165 231.504,56.223 230.000,55.914 230.000 C 55.851 230.000,55.272 230.675,54.626 231.500 M121.826 231.500 C 120.962 232.605,120.893 232.790,121.563 232.204 C 122.365 231.504,123.423 230.000,123.114 230.000 C 123.051 230.000,122.472 230.675,121.826 231.500 M36.006 231.033 C 36.009 231.455,36.195 232.070,36.418 232.400 C 36.715 232.838,36.752 232.676,36.556 231.800 C 36.227 230.329,35.998 230.010,36.006 231.033 M261.646 232.067 C 261.621 232.434,261.496 233.064,261.370 233.467 C 261.152 234.162,261.163 234.163,261.597 233.487 C 261.848 233.096,261.973 232.466,261.873 232.087 C 261.711 231.468,261.688 231.466,261.646 232.067 M249.000 232.400 C 248.496 232.617,248.422 232.744,248.800 232.744 C 249.130 232.744,249.760 232.589,250.200 232.400 C 250.704 232.183,250.778 232.056,250.400 232.056 C 250.070 232.056,249.440 232.211,249.000 232.400 M362.000 233.200 C 361.196 233.457,361.157 233.523,361.800 233.532 C 362.240 233.538,362.960 233.389,363.400 233.200 C 364.419 232.762,363.368 232.762,362.000 233.200 M145.300 233.887 C 145.905 233.978,146.895 233.978,147.500 233.887 C 148.105 233.795,147.610 233.720,146.400 233.720 C 145.190 233.720,144.695 233.795,145.300 233.887 M197.300 233.876 C 197.685 233.976,198.315 233.976,198.700 233.876 C 199.085 233.775,198.770 233.693,198.000 233.693 C 197.230 233.693,196.915 233.775,197.300 233.876 M327.800 234.000 C 326.722 234.274,326.702 234.306,327.600 234.313 C 328.150 234.317,329.050 234.176,329.600 234.000 C 330.944 233.569,329.492 233.569,327.800 234.000 M357.100 233.882 C 357.595 233.978,358.405 233.978,358.900 233.882 C 359.395 233.787,358.990 233.709,358.000 233.709 C 357.010 233.709,356.605 233.787,357.100 233.882 M188.500 234.297 C 189.985 234.374,192.415 234.374,193.900 234.297 C 195.385 234.220,194.170 234.157,191.200 234.157 C 188.230 234.157,187.015 234.220,188.500 234.297 M48.000 234.800 C 47.196 235.057,47.157 235.123,47.800 235.132 C 48.240 235.138,48.960 234.989,49.400 234.800 C 50.419 234.362,49.368 234.362,48.000 234.800 M40.700 235.493 C 41.635 235.577,43.165 235.577,44.100 235.493 C 45.035 235.409,44.270 235.340,42.400 235.340 C 40.530 235.340,39.765 235.409,40.700 235.493 M257.000 236.400 C 256.496 236.617,256.422 236.744,256.800 236.744 C 257.130 236.744,257.760 236.589,258.200 236.400 C 258.704 236.183,258.778 236.056,258.400 236.056 C 258.070 236.056,257.440 236.211,257.000 236.400 M253.400 237.200 C 252.381 237.638,253.432 237.638,254.800 237.200 C 255.604 236.943,255.643 236.877,255.000 236.868 C 254.560 236.862,253.840 237.011,253.400 237.200 M245.800 238.800 C 245.296 239.017,245.222 239.144,245.600 239.144 C 245.930 239.144,246.560 238.989,247.000 238.800 C 247.504 238.583,247.578 238.456,247.200 238.456 C 246.870 238.456,246.240 238.611,245.800 238.800 M238.600 240.400 C 237.829 240.731,237.831 240.745,238.676 240.772 C 239.158 240.787,239.664 240.620,239.800 240.400 C 240.092 239.927,239.701 239.927,238.600 240.400 M225.400 246.235 L 224.200 247.266 225.500 246.406 C 226.215 245.933,226.800 245.468,226.800 245.373 C 226.800 245.073,226.631 245.178,225.400 246.235 M222.534 253.600 C 222.534 255.250,222.605 255.925,222.691 255.100 C 222.778 254.275,222.778 252.925,222.691 252.100 C 222.605 251.275,222.534 251.950,222.534 253.600 M250.778 258.300 L 249.400 259.800 250.900 258.422 C 252.296 257.138,252.584 256.800,252.278 256.800 C 252.212 256.800,251.537 257.475,250.778 258.300 M237.824 259.787 C 238.251 260.110,238.870 260.379,239.200 260.385 C 239.530 260.390,239.284 260.126,238.654 259.798 C 237.195 259.037,236.825 259.032,237.824 259.787 M243.505 261.483 C 244.002 261.579,244.722 261.575,245.105 261.475 C 245.487 261.375,245.080 261.296,244.200 261.301 C 243.320 261.305,243.007 261.387,243.505 261.483 M263.385 265.300 L 261.400 267.400 263.500 265.415 C 265.451 263.571,265.783 263.200,265.485 263.200 C 265.422 263.200,264.477 264.145,263.385 265.300 M230.839 268.248 C 231.254 268.747,235.989 270.950,236.187 270.736 C 236.256 270.661,234.998 269.970,233.390 269.200 C 231.782 268.430,230.634 268.002,230.839 268.248 M242.517 271.897 C 244.011 271.974,246.351 271.974,247.717 271.896 C 249.082 271.818,247.860 271.755,245.000 271.755 C 242.140 271.756,241.022 271.820,242.517 271.897 " stroke="none" fill="#847c9c" fill-rule="evenodd"></path><path id="path6" d="M68.100 128.276 C 68.485 128.376,69.115 128.376,69.500 128.276 C 69.885 128.175,69.570 128.093,68.800 128.093 C 68.030 128.093,67.715 128.175,68.100 128.276 M80.500 128.291 C 81.325 128.378,82.675 128.378,83.500 128.291 C 84.325 128.205,83.650 128.134,82.000 128.134 C 80.350 128.134,79.675 128.205,80.500 128.291 M100.100 128.691 C 100.925 128.778,102.275 128.778,103.100 128.691 C 103.925 128.605,103.250 128.534,101.600 128.534 C 99.950 128.534,99.275 128.605,100.100 128.691 M22.893 152.400 C 22.893 153.170,22.975 153.485,23.076 153.100 C 23.176 152.715,23.176 152.085,23.076 151.700 C 22.975 151.315,22.893 151.630,22.893 152.400 M114.705 161.083 C 115.202 161.179,115.922 161.175,116.305 161.075 C 116.687 160.975,116.280 160.896,115.400 160.901 C 114.520 160.905,114.207 160.987,114.705 161.083 M202.305 165.883 C 202.802 165.979,203.522 165.975,203.905 165.875 C 204.287 165.775,203.880 165.696,203.000 165.701 C 202.120 165.705,201.807 165.787,202.305 165.883 M105.309 170.400 C 105.309 171.390,105.387 171.795,105.482 171.300 C 105.578 170.805,105.578 169.995,105.482 169.500 C 105.387 169.005,105.309 169.410,105.309 170.400 M251.734 178.400 C 251.734 180.050,251.805 180.725,251.891 179.900 C 251.978 179.075,251.978 177.725,251.891 176.900 C 251.805 176.075,251.734 176.750,251.734 178.400 M133.105 176.283 C 133.602 176.379,134.322 176.375,134.705 176.275 C 135.087 176.175,134.680 176.096,133.800 176.101 C 132.920 176.105,132.607 176.187,133.105 176.283 M74.700 185.482 C 75.195 185.578,76.005 185.578,76.500 185.482 C 76.995 185.387,76.590 185.309,75.600 185.309 C 74.610 185.309,74.205 185.387,74.700 185.482 M131.305 189.887 C 131.914 189.979,132.814 189.977,133.305 189.882 C 133.797 189.787,133.300 189.711,132.200 189.714 C 131.100 189.717,130.697 189.795,131.305 189.887 M363.309 197.600 C 363.309 198.590,363.387 198.995,363.482 198.500 C 363.578 198.005,363.578 197.195,363.482 196.700 C 363.387 196.205,363.309 196.610,363.309 197.600 M104.537 215.400 C 104.539 217.160,104.609 217.830,104.693 216.889 C 104.778 215.949,104.777 214.509,104.691 213.689 C 104.605 212.870,104.536 213.640,104.537 215.400 M35.320 220.400 C 35.320 221.610,35.395 222.105,35.487 221.500 C 35.578 220.895,35.578 219.905,35.487 219.300 C 35.395 218.695,35.320 219.190,35.320 220.400 M328.105 219.487 C 328.714 219.579,329.614 219.577,330.105 219.482 C 330.597 219.387,330.100 219.311,329.000 219.314 C 327.900 219.317,327.497 219.395,328.105 219.487 M104.501 224.600 C 104.505 225.480,104.587 225.793,104.683 225.295 C 104.779 224.798,104.775 224.078,104.675 223.695 C 104.575 223.313,104.496 223.720,104.501 224.600 M35.324 225.800 C 35.326 227.120,35.401 227.612,35.490 226.893 C 35.579 226.174,35.577 225.094,35.486 224.493 C 35.395 223.892,35.322 224.480,35.324 225.800 M342.575 227.300 L 341.400 228.600 342.700 227.425 C 343.415 226.779,344.000 226.194,344.000 226.125 C 344.000 225.816,343.670 226.088,342.575 227.300 M189.312 234.695 C 190.364 234.777,191.984 234.776,192.912 234.692 C 193.840 234.608,192.980 234.541,191.000 234.542 C 189.020 234.543,188.260 234.612,189.312 234.695 M321.100 235.089 C 321.815 235.178,322.985 235.178,323.700 235.089 C 324.415 235.001,323.830 234.928,322.400 234.928 C 320.970 234.928,320.385 235.001,321.100 235.089 " stroke="none" fill="#a4acc4" fill-rule="evenodd"></path><path id="path7" d="M85.700 128.287 C 86.305 128.378,87.295 128.378,87.900 128.287 C 88.505 128.195,88.010 128.120,86.800 128.120 C 85.590 128.120,85.095 128.195,85.700 128.287 M102.700 145.095 C 103.855 145.176,105.745 145.176,106.900 145.095 C 108.055 145.014,107.110 144.948,104.800 144.948 C 102.490 144.948,101.545 145.014,102.700 145.095 " stroke="none" fill="#a4b2cc" fill-rule="evenodd"></path><path id="path8" d="M62.905 128.287 C 63.514 128.379,64.414 128.377,64.905 128.282 C 65.397 128.187,64.900 128.111,63.800 128.114 C 62.700 128.117,62.297 128.195,62.905 128.287 M92.922 128.299 C 95.299 128.370,99.079 128.369,101.322 128.298 C 103.565 128.227,101.620 128.169,97.000 128.169 C 92.380 128.170,90.545 128.228,92.922 128.299 M108.716 128.697 C 110.099 128.775,112.259 128.774,113.516 128.695 C 114.772 128.616,113.640 128.552,111.000 128.553 C 108.360 128.553,107.332 128.618,108.716 128.697 M119.693 132.000 C 119.693 132.770,119.775 133.085,119.876 132.700 C 119.976 132.315,119.976 131.685,119.876 131.300 C 119.775 130.915,119.693 131.230,119.693 132.000 M90.920 145.098 C 92.855 145.172,95.915 145.171,97.720 145.097 C 99.524 145.023,97.940 144.963,94.200 144.964 C 90.460 144.964,88.984 145.025,90.920 145.098 M103.500 145.493 C 104.435 145.577,105.965 145.577,106.900 145.493 C 107.835 145.409,107.070 145.340,105.200 145.340 C 103.330 145.340,102.565 145.409,103.500 145.493 M22.493 152.400 C 22.493 153.170,22.575 153.485,22.676 153.100 C 22.776 152.715,22.776 152.085,22.676 151.700 C 22.575 151.315,22.493 151.630,22.493 152.400 M352.975 165.700 L 351.800 167.000 353.198 165.800 C 353.967 165.140,354.672 164.555,354.765 164.500 C 354.857 164.445,354.757 164.400,354.542 164.400 C 354.326 164.400,353.621 164.985,352.975 165.700 M337.682 166.296 C 339.158 166.373,341.678 166.373,343.282 166.297 C 344.887 166.221,343.680 166.158,340.600 166.158 C 337.520 166.157,336.207 166.219,337.682 166.296 M68.502 169.600 C 68.633 170.082,69.481 170.205,72.832 170.224 L 77.000 170.248 73.014 170.108 C 70.496 170.020,68.901 169.791,68.684 169.484 C 68.438 169.139,68.386 169.172,68.502 169.600 M79.300 170.691 C 80.125 170.778,81.475 170.778,82.300 170.691 C 83.125 170.605,82.450 170.534,80.800 170.534 C 79.150 170.534,78.475 170.605,79.300 170.691 M95.952 173.687 C 96.137 174.798,96.193 174.855,96.319 174.054 C 96.401 173.533,96.303 172.943,96.101 172.741 C 95.879 172.519,95.821 172.893,95.952 173.687 M251.693 174.000 C 251.693 174.770,251.775 175.085,251.876 174.700 C 251.976 174.315,251.976 173.685,251.876 173.300 C 251.775 172.915,251.693 173.230,251.693 174.000 M132.500 175.887 C 133.105 175.978,134.095 175.978,134.700 175.887 C 135.305 175.795,134.810 175.720,133.600 175.720 C 132.390 175.720,131.895 175.795,132.500 175.887 M251.693 182.800 C 251.693 183.570,251.775 183.885,251.876 183.500 C 251.976 183.115,251.976 182.485,251.876 182.100 C 251.775 181.715,251.693 182.030,251.693 182.800 M330.000 186.600 C 329.028 187.590,328.323 188.400,328.433 188.400 C 328.543 188.400,329.428 187.590,330.400 186.600 C 331.372 185.610,332.077 184.800,331.967 184.800 C 331.857 184.800,330.972 185.610,330.000 186.600 M63.992 186.100 C 63.604 186.900,63.617 186.924,64.110 186.316 C 64.546 185.778,65.471 185.603,68.432 185.499 L 72.200 185.366 68.314 185.283 C 64.640 185.205,64.404 185.249,63.992 186.100 M25.867 185.867 C 25.505 186.228,25.528 187.508,25.900 187.738 C 26.065 187.840,26.200 187.401,26.200 186.762 C 26.200 186.123,26.185 185.600,26.167 185.600 C 26.148 185.600,26.013 185.720,25.867 185.867 M79.105 185.883 C 79.602 185.979,80.322 185.975,80.705 185.875 C 81.087 185.775,80.680 185.696,79.800 185.701 C 78.920 185.705,78.607 185.787,79.105 185.883 M84.912 186.295 C 85.964 186.377,87.584 186.376,88.512 186.292 C 89.440 186.208,88.580 186.141,86.600 186.142 C 84.620 186.143,83.860 186.212,84.912 186.295 M40.258 187.851 C 40.509 187.954,40.640 188.435,40.549 188.919 C 40.394 189.743,40.407 189.748,40.742 189.000 C 41.148 188.093,40.975 187.585,40.276 187.632 C 39.932 187.654,39.927 187.715,40.258 187.851 M31.300 188.687 C 31.905 188.778,32.895 188.778,33.500 188.687 C 34.105 188.595,33.610 188.520,32.400 188.520 C 31.190 188.520,30.695 188.595,31.300 188.687 M346.501 189.800 C 346.505 190.680,346.587 190.993,346.683 190.495 C 346.779 189.998,346.775 189.278,346.675 188.895 C 346.575 188.513,346.496 188.920,346.501 189.800 M127.067 189.867 C 126.920 190.013,126.803 190.328,126.806 190.567 C 126.810 190.855,126.911 190.846,127.106 190.540 C 127.268 190.288,127.850 189.997,128.400 189.895 L 129.400 189.709 128.367 189.654 C 127.798 189.625,127.213 189.720,127.067 189.867 M346.093 192.800 C 346.093 193.570,346.175 193.885,346.276 193.500 C 346.376 193.115,346.376 192.485,346.276 192.100 C 346.175 191.715,346.093 192.030,346.093 192.800 M187.849 193.015 C 187.712 193.373,187.615 193.966,187.634 194.333 C 187.653 194.700,187.827 194.469,188.021 193.820 C 188.398 192.558,188.265 191.933,187.849 193.015 M228.250 197.250 C 227.917 198.917,228.240 199.240,228.600 197.600 C 228.752 196.909,228.793 196.259,228.691 196.158 C 228.589 196.056,228.391 196.547,228.250 197.250 M301.449 198.215 C 301.312 198.573,301.215 199.166,301.234 199.533 C 301.253 199.900,301.427 199.669,301.621 199.020 C 301.998 197.758,301.865 197.133,301.449 198.215 M363.350 205.000 C 363.351 207.420,363.416 208.358,363.496 207.085 C 363.576 205.812,363.575 203.832,363.494 202.685 C 363.414 201.538,363.349 202.580,363.350 205.000 M123.829 204.229 C 123.681 204.815,123.638 205.372,123.732 205.466 C 123.827 205.560,124.024 205.158,124.171 204.571 C 124.319 203.985,124.362 203.428,124.268 203.334 C 124.173 203.240,123.976 203.642,123.829 204.229 M379.392 206.900 L 375.800 210.600 379.500 207.008 C 382.936 203.672,383.382 203.200,383.092 203.200 C 383.032 203.200,381.367 204.865,379.392 206.900 M321.293 205.200 C 321.293 205.970,321.375 206.285,321.476 205.900 C 321.576 205.515,321.576 204.885,321.476 204.500 C 321.375 204.115,321.293 204.430,321.293 205.200 M186.514 207.800 C 186.517 208.900,186.595 209.303,186.687 208.695 C 186.779 208.086,186.777 207.186,186.682 206.695 C 186.587 206.203,186.511 206.700,186.514 207.800 M104.514 209.000 C 104.517 210.100,104.595 210.503,104.687 209.895 C 104.779 209.286,104.777 208.386,104.682 207.895 C 104.587 207.403,104.511 207.900,104.514 209.000 M161.588 209.900 L 159.000 212.600 161.700 210.012 C 164.208 207.607,164.583 207.200,164.288 207.200 C 164.227 207.200,163.012 208.415,161.588 209.900 M35.849 210.615 C 35.712 210.973,35.623 211.836,35.650 212.533 C 35.692 213.587,35.750 213.498,35.999 212.000 C 36.317 210.086,36.259 209.548,35.849 210.615 M132.553 215.000 C 132.553 217.640,132.618 218.668,132.697 217.284 C 132.775 215.901,132.774 213.741,132.695 212.484 C 132.616 211.228,132.552 212.360,132.553 215.000 M289.792 216.900 L 286.200 220.600 289.900 217.008 C 293.336 213.672,293.782 213.200,293.492 213.200 C 293.432 213.200,291.767 214.865,289.792 216.900 M338.575 215.300 L 337.400 216.600 338.700 215.425 C 339.415 214.779,340.000 214.194,340.000 214.125 C 340.000 213.816,339.670 214.088,338.575 215.300 M123.709 216.800 C 123.709 217.790,123.787 218.195,123.882 217.700 C 123.978 217.205,123.978 216.395,123.882 215.900 C 123.787 215.405,123.709 215.810,123.709 216.800 M198.500 217.891 C 199.325 217.978,200.675 217.978,201.500 217.891 C 202.325 217.805,201.650 217.734,200.000 217.734 C 198.350 217.734,197.675 217.805,198.500 217.891 M124.109 220.400 C 124.109 221.390,124.187 221.795,124.282 221.300 C 124.378 220.805,124.378 219.995,124.282 219.500 C 124.187 219.005,124.109 219.410,124.109 220.400 M381.200 223.000 C 380.228 223.990,379.523 224.800,379.633 224.800 C 379.743 224.800,380.628 223.990,381.600 223.000 C 382.572 222.010,383.277 221.200,383.167 221.200 C 383.057 221.200,382.172 222.010,381.200 223.000 M34.920 223.600 C 34.920 224.810,34.995 225.305,35.087 224.700 C 35.178 224.095,35.178 223.105,35.087 222.500 C 34.995 221.895,34.920 222.390,34.920 223.600 M280.246 224.624 C 279.930 225.448,280.260 225.900,280.790 225.370 C 280.997 225.163,281.019 224.755,280.839 224.463 C 280.582 224.046,280.455 224.081,280.246 224.624 M56.864 225.800 C 56.823 226.680,56.696 227.850,56.583 228.400 L 56.377 229.400 56.808 228.414 C 57.044 227.872,57.171 226.702,57.089 225.814 L 56.940 224.200 56.864 225.800 M171.000 228.000 C 172.083 229.100,173.060 230.000,173.170 230.000 C 173.280 230.000,172.483 229.100,171.400 228.000 C 170.317 226.900,169.340 226.000,169.230 226.000 C 169.120 226.000,169.917 226.900,171.000 228.000 M296.187 228.500 L 293.800 231.000 296.300 228.613 C 297.675 227.299,298.800 226.174,298.800 226.113 C 298.800 225.817,298.405 226.178,296.187 228.500 M136.400 230.125 C 136.400 230.194,136.985 230.779,137.700 231.425 L 139.000 232.600 137.825 231.300 C 136.730 230.088,136.400 229.816,136.400 230.125 M291.375 233.300 L 290.200 234.600 291.598 233.400 C 292.367 232.740,293.072 232.155,293.165 232.100 C 293.257 232.045,293.157 232.000,292.942 232.000 C 292.726 232.000,292.021 232.585,291.375 233.300 M244.305 233.483 C 244.802 233.579,245.522 233.575,245.905 233.475 C 246.287 233.375,245.880 233.296,245.000 233.301 C 244.120 233.305,243.807 233.387,244.305 233.483 M329.400 234.400 C 328.293 234.682,328.277 234.709,329.200 234.747 C 329.750 234.769,330.470 234.613,330.800 234.400 C 331.481 233.960,331.129 233.960,329.400 234.400 M145.300 234.687 C 145.905 234.778,146.895 234.778,147.500 234.687 C 148.105 234.595,147.610 234.520,146.400 234.520 C 145.190 234.520,144.695 234.595,145.300 234.687 M184.705 234.683 C 185.202 234.779,185.922 234.775,186.305 234.675 C 186.687 234.575,186.280 234.496,185.400 234.501 C 184.520 234.505,184.207 234.587,184.705 234.683 M196.505 234.687 C 197.114 234.779,198.014 234.777,198.505 234.682 C 198.997 234.587,198.500 234.511,197.400 234.514 C 196.300 234.517,195.897 234.595,196.505 234.687 M357.100 234.682 C 357.595 234.778,358.405 234.778,358.900 234.682 C 359.395 234.587,358.990 234.509,358.000 234.509 C 357.010 234.509,356.605 234.587,357.100 234.682 M40.700 236.289 C 41.415 236.378,42.585 236.378,43.300 236.289 C 44.015 236.201,43.430 236.128,42.000 236.128 C 40.570 236.128,39.985 236.201,40.700 236.289 M110.700 236.289 C 111.415 236.378,112.585 236.378,113.300 236.289 C 114.015 236.201,113.430 236.128,112.000 236.128 C 110.570 236.128,109.985 236.201,110.700 236.289 M246.500 251.876 C 246.885 251.976,247.515 251.976,247.900 251.876 C 248.285 251.775,247.970 251.693,247.200 251.693 C 246.430 251.693,246.115 251.775,246.500 251.876 M240.305 272.283 C 240.802 272.379,241.522 272.375,241.905 272.275 C 242.287 272.175,241.880 272.096,241.000 272.101 C 240.120 272.105,239.807 272.187,240.305 272.283 M248.500 272.276 C 248.885 272.376,249.515 272.376,249.900 272.276 C 250.285 272.175,249.970 272.093,249.200 272.093 C 248.430 272.093,248.115 272.175,248.500 272.276 M244.100 272.676 C 244.485 272.776,245.115 272.776,245.500 272.676 C 245.885 272.575,245.570 272.493,244.800 272.493 C 244.030 272.493,243.715 272.575,244.100 272.676 " stroke="none" fill="#acb4ce" fill-rule="evenodd"></path></g></svg>